<svg viewBox="0 0 481 133" xmlns="http://www.w3.org/2000/svg" fill-rule="evenodd" clip-rule="evenodd" stroke-linejoin="round" stroke-miterlimit="1.4"><path d="M106 67.6v63.7h349.6c13 0 23.5-10.6 23.5-23.5V67.6H293.9V0H0v66.3h104.6l1.4 1.3z" fill="#fff" fill-rule="nonzero"/><path d="M104.6 132.6h351a24.8 24.8 0 0 0 24.8-24.8V66.3H104.6v66.3z" fill="#0058a2" fill-rule="nonzero"/><path d="M449.2 99.4c0-5.8-3.6-10.3-10.4-10.3h-6v20.6h6c6.5 0 10.4-4.7 10.4-10.3m-23.4 16.5V83h13c10.4 0 17.6 6.6 17.6 16.5 0 10-7.2 16.5-17.6 16.5h-13zm-16.6 0l-15.8-21.5v21.5h-7V83h7.2l15.3 20.8V82.9h7v33h-6.7zm-45.3-26l-5.1 14.2H369L363.9 90zm9.2 26l-2-5.6h-14.3l-2 5.6h-8l12.7-33h8.8l12.8 33h-8zm-51.4 0V83h7.1v26.8h14v6.2h-21zm-15-22.4c0-2.7-2-4.4-4.9-4.4h-7.4V98h7.4c2.8 0 5-1.7 5-4.5m-.7 22.4l-6.5-11.7h-5.2v11.7h-7V83h15.4c7 0 11.2 4.5 11.2 10.6 0 5.8-3.7 9-7.3 9.9l7.5 12.5H306zm-51 0V83h23.3v6h-16.3v7h16v6.1h-16v7.5h16.3v6.2H255zm-17 0V92.1l-9.3 23.8h-3l-9.4-23.8v23.8h-7V83h9.8l8 20.7 8-20.7h10v33h-7zm-45.7 0V92.1l-9.3 23.8h-3l-9.4-23.8v23.8h-7V83h9.8l8 20.7 8.1-20.7h10v33h-7.2zm-51.2-26l-5.1 14.2h10.3L141.2 90zm9.2 26l-2.1-5.6h-14.2l-2 5.6h-8l12.7-33h8.8l12.8 33h-8z" fill="#fff" fill-rule="nonzero"/><path d="M264.3 16.6h7v33h-7v-33zm-32.5 33v-33h23.4v6.2h-16.4v7h16v6.1h-16v7.5h16.4v6.2h-23.4zm-15-22.4c0-2.7-2-4.4-4.8-4.4h-7.5v8.9h7.5c2.7 0 4.9-1.7 4.9-4.5m-.7 22.4L209.7 38h-5.2v11.7h-7v-33H213c6.8 0 11.1 4.5 11.1 10.6 0 5.8-3.7 9-7.3 9.8l7.5 12.6h-8.1zm-51 0v-33h23.3v6.2h-16.3v7h16v6.1h-16v7.5h16.3v6.2h-23.4zm-13.5 0l-10-13.2-2.6 3v10.2h-7v-33h7v14.7l11.7-14.7h8.7L146.4 32l14 17.5h-8.7zm-46.4 0v-33h7.1v26.8h14v6.2h-21zM91.7 33.1c0-6.2-3.9-10.8-10-10.8s-10 4.6-10 10.8c0 6.2 3.9 10.9 10 10.9s10-4.7 10-10.9m-27.3 0c0-10 7.3-17 17.3-17S99 23 99 33s-7.3 17.1-17.3 17.1-17.3-7.1-17.3-17M51.3 49.5V25.8L42 49.6h-3.1l-9.3-23.8v23.8h-7v-33h9.8l8 20.6 8-20.6h10v33h-7.1z" fill="#dc2f34" fill-rule="nonzero"/></svg>