<svg xmlns="http://www.w3.org/2000/svg" viewBox="0 0 194.92 60"><path d="M73.58 46.86h11.6l3.64-13.15 3.59 13.15h11.68l8.08-33.09h-11.89l-2.85 14.75-4.21-14.75h-7.98l-4.21 14.91-3.5-14.91H65.88l7.7 33.09Zm66.57-23.02 2.14-.03v12.35c-.19 7.48 1.09 11.79 11.84 11.45 2.69-.08 2.5-.26 3.84-.26V35.7c-1.23.19-3.84.29-3.84-1.43V23.76h3.94l-.02-9.93h-3.92V2.96L142.4 9.95v3.85h-2.27l.02 10.05Zm-1.03 23.66c-.17-2.52.33-21.3.33-21.3 0-9.5-3.15-11.69-10.89-12.51-4.57-.49-9.95-.04-14.23.4l-1.98 8.62c9.55-2.06 15.39-1.01 15.83 3.1-1.92-.98-3.72-1.45-5.45-1.45-5.73 0-13.33 3.28-12.84 12.77.33 6.47 4.89 10.21 11.11 10.5 4.41.21 7.52-3.45 7.52-3.45-.04 1.61 0 1.72 0 3.32h10.6Zm-14.88-15.64c-1.91 0-3.45 1.58-3.44 3.49.01 1.9 1.54 3.44 3.44 3.44s3.45-1.53 3.46-3.44a3.474 3.474 0 0 0-3.46-3.49ZM49.82 12.49c-9.79-.07-17.87 7.91-17.8 17.7.07 9.72 8.08 17.52 17.8 17.45 9.66-.07 17.5-7.79 17.57-17.45.07-9.73-7.85-17.63-17.57-17.69Zm-.11 11.19c-3.47-.02-6.32 2.8-6.31 6.27.01 3.45 2.86 6.21 6.31 6.19 3.42-.02 6.22-2.76 6.23-6.19.01-3.45-2.78-6.25-6.23-6.27ZM17.5.02v30.73c-.39 6.66-6.75 5.82-7.82 2.62L0 39.9c2.09 4.67 8.67 7.93 15.5 7.72 4.28-.13 9.2-3.21 11.35-6.44 2.03-2.99 3.19-6.04 3.25-11V0L17.5.02Z" style="fill:#e6141e;fill-rule:evenodd"/><path d="M177.6 13.12h-.04.04Zm0 34.04h.01ZM194 13.02Zm-4.41 28.81c.3.2.36.61.36.97l-.12 1.77c-.01.12-.03.39-.12.69-.08.22-.19.44-.29.54-.08.1-.17.2-.27.3-1.96 2-6.25 3.36-11.56 3.36s-9.6-1.36-11.56-3.36c-.09-.1-.19-.2-.27-.3-.1-.1-.22-.31-.29-.54-.09-.29-.11-.56-.12-.69l-.12-1.77c0-.36.05-.77.35-.97V30.7s-.1-.08-.15-.14a.754.754 0 0 1-.15-.23c-.03-.1-.05-.23-.05-.3v-1.87c0-.14.02-.25.07-.33.05-.1.15-.17.29-.22v-8.24s-.11-.08-.17-.16a.86.86 0 0 1-.15-.32c-.04-.1-.04-.27-.04-.27v-2.41c0-1.87 5.68-3.09 12.35-3.09s12.35 1.22 12.35 3.09v2.41s-.01.17-.04.27c-.03.13-.07.22-.15.32-.05.07-.16.16-.16.16v8.24c.12.04.22.11.29.22.05.09.07.19.07.33v1.87c0 .07-.01.2-.05.3-.03.08-.08.15-.15.23-.05.06-.15.14-.15.14v11.13Zm.02-13.62s.07-.05.1-.18c-.01-.06-.03-.1-.1-.14v.32Zm-24.12-12c0 .17.07.34.19.51 1.97-1.31 6.57-2.08 11.92-2.08s9.95.77 11.92 2.08c.12-.14.19-.32.19-.51 0-1.55-5.26-2.84-12.11-2.84s-12.11 1.29-12.11 2.84Zm12.11-1.3c-5.51 0-9.91.81-11.75 2.01.06.06.12.12.19.17 1.72-1.08 5.91-1.93 11.56-1.93s9.84.85 11.56 1.93c.07-.06.14-.11.19-.17-1.84-1.2-6.24-2.01-11.75-2.01Zm-12.11 2.26c.08.11.18.2.31.3.35.28.58.41.98.61 2.2 1.08 6.09 1.84 10.82 1.84s8.61-.76 10.82-1.84c.4-.2.64-.33.98-.61.13-.11.22-.19.31-.3v-.29c-1.2 1.56-6.26 2.79-12.11 2.79s-10.91-1.22-12.11-2.79v.29Zm.21 1.93c.13.11.29.22.49.32 2.58 1.3 6.61 2.17 11.4 2.17s8.82-.87 11.4-2.17c.2-.1.36-.21.49-.32.14-.12.22-.3.22-.49v-1.07c-.1.09-.19.17-.32.27-.21.16-.36.25-.57.36-2.26 1.23-6.42 2.02-11.21 2.02-4.8 0-8.96-.79-11.22-2.02-.32-.17-.63-.38-.9-.63v1.07c0 .27.15.43.22.49Zm20.38 4.32v4.76c.34-.11.67-.23 1.01-.35v-4.77c.36-.14.62-.24.98-.39v-.94h.01-.01c-1.05.44-2.12.8-3.2 1.1v.94c.37-.1.84-.23 1.21-.35Zm-3.68-.05c-.48 1.99-.96 3.97-1.45 5.93.38-.04.77-.1 1.15-.16l.25-1.25c.48-.08.97-.18 1.45-.29l.25 1.15c.37-.09.75-.19 1.13-.3l-1.43-5.35c-.45.1-.9.19-1.36.27h.01Zm-2.65.35-.66 4.27-.69-4.2h-1.13l-.7 4.21-.64-4.26c-.37-.02-.75-.05-1.12-.09s1.06 5.81 1.06 5.81c.43.03.87.05 1.31.05l.67-4.14.65 4.13c.43-.01.87-.03 1.31-.07l1.06-5.82c-.37.04-.74.08-1.12.11Zm-7.29-.53c-1.65-.33-1.85.8-1.85 2.55s.2 3.06 1.85 3.39c1.66.3 1.87-.93 1.87-2.68s-.22-2.96-1.87-3.26Zm-4.49 2.94v-.18c-.31-.11-.62-.23-.92-.36v.25c0 .89.25 1.79 1.32 2.18 1.02.36 1.52 0 1.52-1.22v-4.11c-.34-.1-.68-.21-1.02-.32v4.08c0 .61-.09.87-.45.74-.37-.13-.45-.45-.45-1.06Zm-2.48 1.9c.03.13.06.16.1.18v-.32c-.07.04-.09.08-.1.14Zm.39 2.53c2.56 1.74 6.74 3.03 11.72 3.03s9.16-1.29 11.72-3.03c.11-.07.25-.18.31-.25.05-.06.08-.18.08-.27v-1.59l-.15.11-.2.13c-2.66 1.65-6.89 2.97-11.76 2.97-4.87.01-9.1-1.3-11.76-2.96l-.2-.13-.15-.11v1.58c0 .09.03.21.08.27.06.07.2.18.31.25Zm19.71 7.8v-1.58h.03c.68-.23 1.3-.46 1.89-.7v-.93c-.92.38-1.91.71-2.92.99v6.19c1.05-.29 2.06-.64 3-1.03v-.93c-.59.24-1.23.47-1.93.7l-.07.02V39.3h.03c.59-.2 1.17-.42 1.78-.66v-.93c-.59.24-1.16.45-1.75.63l-.06.02Zm-3.1-.51v4.96c.33-.06.67-.13 1.01-.21v-6.19c-.52.12-1.07.23-1.7.32-.29 1.54-.58 3.04-.88 4.53h-.1l-.86-4.31c-.58.05-1.16.08-1.73.08v6.19c.33 0 .65-.02.99-.04h.03l.02-4.97h.1l1.07 4.89.82-.09h.05l.32-1.55c.25-1.2.5-2.41.76-3.62h.1Zm-6.71-.89v6.19c.36.03.74.05 1.19.06v-6.19c-.39-.01-.77-.04-1.19-.07Zm-3.07 2.09v-1.58h.06c.66.15 1.33.26 1.98.33v-.94c-1.09-.13-2.1-.32-3.08-.57v6.19c1.04.26 2.1.46 3.16.58v-.94a22.3 22.3 0 0 1-2.08-.34h-.04v-1.8h.06c.59.13 1.2.23 1.86.32v-.94c-.67-.08-1.28-.18-1.88-.31h-.04Zm-3.67 1.69v-5.25c-.31-.12-.63-.24-.94-.37v6.18c.89.37 1.81.69 2.82.98v-.94c-.63-.18-1.25-.38-1.85-.59h-.03Zm20.66 2.38c-.08.16-.13.24-.21.32-1.88 2.2-6.42 3.72-11.89 3.72-5.49 0-10.03-1.51-11.9-3.72-.07-.09-.13-.16-.21-.32l.12 1.39c.02.2.04.45.11.67.07.21.15.35.27.5.1.12.21.23.32.34 1.9 1.85 5.99 3.18 11.29 3.18s9.39-1.34 11.28-3.18c.12-.11.22-.23.32-.34.13-.15.2-.29.27-.5.07-.22.1-.46.11-.67l.12-1.39Zm-.12-.95c-.07.25-.1.35-.22.54-.25.38-.5.6-.84.89-2 1.71-6.15 2.94-10.9 2.94h-.02c-4.75 0-8.91-1.23-10.9-2.94-.33-.29-.59-.51-.84-.89-.13-.19-.15-.3-.22-.54-.07.12-.08.25-.08.39 0 .26.23.57.41.78 1.83 2.05 6.15 3.56 11.64 3.56s9.8-1.5 11.64-3.56c.18-.21.41-.52.41-.78 0-.14-.02-.27-.08-.39ZM177.6 20.19h.01Zm17.64-8.61c0 .29-.06.92-.56 1.51-.61.73-1.45.82-1.78.82-.52 0-1.03-.17-1.44-.48-.3-.24-.91-.83-.91-1.87 0-.78.34-1.27.53-1.5.25-.29.83-.84 1.82-.84.74 0 1.43.33 1.88.94.3.42.45.91.45 1.42h.01Zm-.38-.01c0-.21-.04-.71-.39-1.19-.2-.26-.7-.79-1.59-.79-.21 0-.7.03-1.17.38-.26.19-.81.7-.81 1.6 0 .26.05.51.15.75.4.99 1.51 1.48 2.51 1.11a1.96 1.96 0 0 0 1.31-1.86Zm-1.04.79c.02.22.09.44.18.65h-.49c-.08-.18-.11-.35-.16-.73-.05-.35-.12-.46-.3-.55-.16-.07-.29-.07-.46-.07h-.21v1.36h-.43v-2.93h.9c.33 0 .71-.02.96.26.06.07.17.23.17.47 0 .38-.26.55-.38.62-.06.03-.15.06-.28.09.08.02.15.05.21.1.23.18.24.47.29.73Zm-.44-1.15c.06-.04.17-.16.17-.36a.46.46 0 0 0-.09-.27c-.13-.16-.31-.16-.68-.16h-.4v.9h.02l.49-.01c.02 0 .32.01.49-.1Zm-21.68 14.8c0 1.53.11 2.15.76 2.28.65.11.76-.46.76-2s-.11-2.13-.76-2.25c-.65-.13-.76.44-.76 1.97Zm11.38-1.78-.54 2.67c.36-.05.71-.13 1.07-.21l-.53-2.46Zm-80.81 26.62 1.91 5.06h-3.89l1.98-5.06Zm-4.47 8.94h1.01l1.19-3.07h4.5l1.2 3.07h1.01l-3.87-9.88h-1.05l-3.99 9.88Zm15.93-9.88h-.87v4.1h-.03c-.36-1.02-1.42-1.56-2.48-1.56-2.17 0-3.21 1.74-3.21 3.78s1.04 3.78 3.21 3.78c1.04 0 2.17-.62 2.55-1.56h.03v1.36h.8v-9.88Zm-5.72 6.31c0-1.48.68-3.05 2.34-3.05 1.84 0 2.5 1.56 2.5 3.05s-.66 3.04-2.5 3.04c-1.66 0-2.34-1.56-2.34-3.04Zm7.36 3.57h.87v-4.17c.04-1.4.85-2.45 2.24-2.45s1.81.94 1.81 2.16v4.46h.87V55.2c0-1.7-.61-2.75-2.62-2.75-1.01 0-1.95.58-2.28 1.44h-.03v-3.97h-.87v9.88Zm7.96-4.07c.15-1.3.91-2.55 2.35-2.55s2.23 1.23 2.27 2.55h-4.62Zm5.49.74c.07-2.01-.86-4.01-3.14-4.01s-3.22 1.89-3.22 3.78c0 2.03.95 3.78 3.22 3.78 1.81 0 2.74-.94 3.11-2.56h-.87c-.28 1.09-.97 1.83-2.24 1.83-1.66 0-2.35-1.54-2.35-2.81h5.49Zm6.33-1.72c-.07-1.55-1.18-2.3-2.62-2.3-1.26 0-2.68.55-2.68 2.01 0 1.2.86 1.62 1.99 1.91l1.12.25c.79.19 1.56.47 1.56 1.3 0 1-1.12 1.36-1.95 1.36-1.16 0-2.03-.61-2.1-1.79h-.87c.15 1.76 1.26 2.52 2.93 2.52 1.33 0 2.87-.6 2.87-2.15 0-1.25-1.04-1.83-2.03-1.98l-1.16-.26c-.61-.15-1.48-.44-1.48-1.2 0-.93.91-1.23 1.69-1.23 1 0 1.83.48 1.87 1.56h.87Zm1.52-3.43h.87v-1.4h-.87v1.4Zm0 8.48h.87v-7.14h-.87v7.14Zm4.5 0h.93l2.67-7.14h-.9l-2.21 6.27h-.03l-2.24-6.27h-.97l2.75 7.14Zm4.97-4.07c.15-1.3.91-2.55 2.35-2.55s2.23 1.23 2.27 2.55h-4.62Zm5.49.74c.07-2.01-.86-4.01-3.14-4.01s-3.22 1.89-3.22 3.78c0 2.03.95 3.78 3.22 3.78 1.81 0 2.74-.94 3.11-2.56h-.87c-.28 1.09-.97 1.83-2.24 1.83-1.66 0-2.35-1.54-2.35-2.81h5.49Zm6.33-1.72c-.07-1.55-1.18-2.3-2.62-2.3-1.26 0-2.68.55-2.68 2.01 0 1.2.86 1.62 1.99 1.91l1.12.25c.79.19 1.56.47 1.56 1.3 0 1-1.12 1.36-1.95 1.36-1.16 0-2.03-.61-2.1-1.79h-.87c.15 1.76 1.26 2.52 2.93 2.52 1.33 0 2.87-.6 2.87-2.15 0-1.25-1.04-1.83-2.03-1.98l-1.16-.26c-.61-.15-1.48-.44-1.48-1.2 0-.93.91-1.23 1.69-1.23 1 0 1.83.48 1.87 1.56h.87Z"/></svg>
